<?xml version="1.0" standalone="no"?>
<!DOCTYPE svg PUBLIC "-//W3C//DTD SVG 20010904//EN"
 "http://www.w3.org/TR/2001/REC-SVG-20010904/DTD/svg10.dtd">
<svg version="1.0" xmlns="http://www.w3.org/2000/svg"
 width="447.000000pt" height="640.000000pt" viewBox="0 0 447.000000 640.000000"
 preserveAspectRatio="xMidYMid meet">

<g transform="translate(0.000000,640.000000) scale(0.100000,-0.100000)"
fill="#000000" stroke="none">
<path d="M925 5794 c-38 -9 -104 -31 -145 -51 -100 -48 -223 -169 -268 -263
-66 -139 -62 -55 -62 -1497 0 -1452 -4 -1359 68 -1503 93 -189 314 -319 539
-320 159 0 319 -42 428 -111 200 -126 301 -351 380 -849 75 -470 106 -594 189
-765 62 -127 115 -188 175 -205 97 -26 175 33 258 195 85 167 113 275 188 730
55 339 90 476 154 610 60 127 110 194 184 250 122 92 244 131 462 145 216 14
313 52 444 175 80 76 132 166 161 281 19 75 20 116 20 1369 0 1244 -1 1295
-19 1367 -45 174 -153 309 -311 387 -152 74 -87 71 -1508 70 -1080 -1 -1277
-3 -1337 -15z"/>
</g>
</svg>
