<?xml version="1.0" encoding="UTF-8"?>
<svg width="700pt" height="700pt" version="1.1" viewBox="0 0 700 700" xmlns="http://www.w3.org/2000/svg">
 <path d="m374.25 506.52c-22.051 13.379-50.785 6.3633-64.176-15.664-82.293-135.37-123.4-227.49-123.4-281.03 0-90.113 73.125-163.16 163.33-163.16s163.33 73.047 163.33 163.16c0 53.539-41.109 145.66-123.4 281.03-3.8906 6.4023-9.2695 11.777-15.684 15.664zm-24.074-226.52c38.703 0 70.078-31.34 70.078-70s-31.375-70-70.078-70c-38.699 0-70.074 31.34-70.074 70s31.375 70 70.074 70z"/>
</svg>
